<?xml version="1.0" encoding="UTF-8" standalone="no"?>
<svg xmlns="http://www.w3.org/2000/svg" width="512" height="512" viewBox="0 0 512 512">
  <defs>
    <!-- Terminal glow effect -->
    <filter id="glow">
      <feGaussianBlur stdDeviation="3" result="coloredBlur"/>
      <feMerge>
        <feMergeNode in="coloredBlur"/>
        <feMergeNode in="SourceGraphic"/>
      </feMerge>
    </filter>
    <!-- Gradient for depth -->
    <linearGradient id="grad" x1="0%" y1="0%" x2="100%" y2="100%">
      <stop offset="0%" style="stop-color:#00ff88;stop-opacity:1" />
      <stop offset="100%" style="stop-color:#00cc66;stop-opacity:1" />
    </linearGradient>
  </defs>

  <!-- Dark terminal background -->
  <rect width="512" height="512" fill="#0d1117"/>
  
  <!-- Terminal frame with rounded corners -->
  <rect x="32" y="32" width="448" height="448" rx="16" ry="16" 
        fill="none" stroke="#00ff88" stroke-width="3" opacity="0.8"/>
  
  <!-- Terminal header bar -->
  <rect x="32" y="32" width="448" height="40" rx="16" ry="16" fill="#161b22"/>
  <circle cx="56" cy="52" r="6" fill="#ff5f56"/>
  <circle cx="76" cy="52" r="6" fill="#ffbd2e"/>
  <circle cx="96" cy="52" r="6" fill="#27c93f"/>
  
  <!-- Main HyperList logo design -->
  <g filter="url(#glow)">
    <!-- Large H that forms into list structure -->
    <!-- Left vertical of H -->
    <rect x="96" y="120" width="24" height="200" fill="url(#grad)"/>
    <!-- Right vertical of H -->
    <rect x="200" y="120" width="24" height="200" fill="url(#grad)"/>
    <!-- Horizontal crossbar of H -->
    <rect x="96" y="208" width="128" height="24" fill="url(#grad)"/>
    
    <!-- List items branching from H -->
    <!-- Main branch -->
    <rect x="224" y="208" width="160" height="4" fill="#00ff88" opacity="0.8"/>
    
    <!-- List item 1 -->
    <rect x="260" y="160" width="8" height="8" fill="#00ff88"/>
    <rect x="276" y="162" width="100" height="4" fill="#00ff88" opacity="0.6"/>
    
    <!-- List item 2 with checkbox -->
    <rect x="260" y="190" width="12" height="12" fill="none" stroke="#00ff88" stroke-width="2"/>
    <polyline points="263,196 266,199 270,193" stroke="#00ff88" stroke-width="2" fill="none"/>
    <rect x="280" y="194" width="96" height="4" fill="#00ff88" opacity="0.6"/>
    
    <!-- List item 3 -->
    <rect x="260" y="220" width="8" height="8" fill="#00ff88"/>
    <rect x="276" y="222" width="100" height="4" fill="#00ff88" opacity="0.6"/>
    
    <!-- Nested item -->
    <rect x="288" y="250" width="6" height="6" fill="#00cc66"/>
    <rect x="300" y="251" width="76" height="3" fill="#00cc66" opacity="0.5"/>
    
    <!-- List item 4 -->
    <rect x="260" y="280" width="8" height="8" fill="#00ff88"/>
    <rect x="276" y="282" width="100" height="4" fill="#00ff88" opacity="0.6"/>
    
    <!-- Terminal cursor blink -->
    <rect x="384" y="280" width="16" height="24" fill="#00ff88">
      <animate attributeName="opacity" values="1;0;1" dur="1s" repeatCount="indefinite"/>
    </rect>
  </g>
  
  <!-- Subtle terminal prompt at bottom -->
  <text x="96" y="380" font-family="monospace" font-size="14" fill="#00ff88" opacity="0.4">
    hyperlist v1.0.0 $
  </text>
</svg>