<?xml version="1.0" encoding="UTF-8"?>
<svg width="150" height="150" viewBox="0 0 150 150" xmlns="http://www.w3.org/2000/svg">
  <!-- Background -->
  <rect x="0" y="0" width="150" height="150" fill="#0f172a"/>
  
  <!-- GitHub Pages website visualization -->
  <g transform="translate(75, 75)">
    <!-- Browser window -->
    <rect x="-50" y="-45" width="100" height="75" fill="#1e1e1e" stroke="#3c3c3c" stroke-width="2" rx="3"/>
    
    <!-- Browser toolbar -->
    <rect x="-50" y="-45" width="100" height="12" fill="#2d2d2d" rx="3 3 0 0"/>
    <circle cx="-42" cy="-39" r="2" fill="#ff5f56"/>
    <circle cx="-35" cy="-39" r="2" fill="#ffbd2e"/>
    <circle cx="-28" cy="-39" r="2" fill="#27c93f"/>
    
    <!-- URL bar -->
    <rect x="-15" y="-42" width="55" height="6" fill="#1a1a1a" stroke="#444" stroke-width="0.5" rx="1"/>
    <text x="-12" y="-38" font-family="monospace" font-size="3.5" fill="#10b981">isene.github.io</text>
    
    <!-- Website content -->
    <g transform="translate(0, -5)">
      <!-- Header -->
      <rect x="-45" y="-25" width="90" height="8" fill="#3b82f6"/>
      <text x="0" y="-20" font-family="monospace" font-size="5" fill="#fff" text-anchor="middle" font-weight="bold">ISENE</text>
      
      <!-- Navigation -->
      <g font-family="monospace" font-size="3" fill="#94a3b8">
        <text x="-40" y="-12" text-anchor="start">Projects</text>
        <text x="-15" y="-12" text-anchor="start">Blog</text>
        <text x="8" y="-12" text-anchor="start">About</text>
        <text x="25" y="-12" text-anchor="start">Contact</text>
      </g>
      
      <!-- Content sections -->
      <rect x="-45" y="-8" width="42" height="20" fill="#1e293b" stroke="#334155" stroke-width="1" rx="2"/>
      <rect x="3" y="-8" width="42" height="20" fill="#1e293b" stroke="#334155" stroke-width="1" rx="2"/>
      <rect x="-45" y="15" width="42" height="20" fill="#1e293b" stroke="#334155" stroke-width="1" rx="2"/>
      <rect x="3" y="15" width="42" height="20" fill="#1e293b" stroke="#334155" stroke-width="1" rx="2"/>
      
      <!-- Project cards content -->
      <text x="-24" y="-2" font-family="monospace" font-size="3" fill="#10b981" text-anchor="middle">HP-41 Tools</text>
      <text x="24" y="-2" font-family="monospace" font-size="3" fill="#f59e0b" text-anchor="middle">Ruby Gems</text>
      <text x="-24" y="21" font-family="monospace" font-size="3" fill="#a78bfa" text-anchor="middle">Telescope</text>
      <text x="24" y="21" font-family="monospace" font-size="3" fill="#ef4444" text-anchor="middle">Articles</text>
    </g>
    
    <!-- GitHub icon -->
    <g transform="translate(35, 35)" opacity="0.8">
      <circle cx="0" cy="0" r="8" fill="#24292e"/>
      <path d="M 0,-5 C -3,-5 -5,-3 -5,0 C -5,2.5 -3.5,4.5 -1.5,5 C -1.2,5 -1,4.8 -1,4.5 L -1,3.5 C -2.5,3.8 -3,2.8 -3,2.8 C -3.3,2 -3.8,1.8 -3.8,1.8 C -4.3,1.3 -3.7,1.3 -3.7,1.3 C -3,1.4 -2.7,2 -2.7,2 C -2,3 -1,2.8 -0.5,2.6 C -0.4,2.1 -0.2,1.8 0,1.6 C -1.8,1.4 -3.5,0.7 -3.5,-1.3 C -3.5,-2 -3.2,-2.5 -2.7,-3 C -2.8,-3.2 -3,-3.8 -2.6,-4.5 C -2.6,-4.5 -2,-4.7 -0.5,-3.9 C 0,-4 0.5,-4 1,-4 C 1.5,-4 2,-4 2.5,-3.9 C 4,-4.7 4.6,-4.5 4.6,-4.5 C 5,-3.8 4.8,-3.2 4.7,-3 C 5.2,-2.5 5.5,-2 5.5,-1.3 C 5.5,0.7 3.8,1.4 2,1.6 C 2.3,1.9 2.5,2.4 2.5,3.2 L 2.5,4.5 C 2.5,4.8 2.7,5 3,5 C 5,4.5 6.5,2.5 6.5,0 C 6.5,-3 4.5,-5 1.5,-5 Z" fill="#fff" transform="scale(0.8)"/>
    </g>
  </g>
  
  <!-- Text -->
  <text x="75" y="135" font-family="monospace" font-size="10" fill="#fff" text-anchor="middle" font-weight="bold">isene.github.io</text>
  <text x="75" y="145" font-family="monospace" font-size="6" fill="#94a3b8" text-anchor="middle">GitHub Pages Site</text>
</svg>